<svg xmlns="http://www.w3.org/2000/svg" viewBox="0 0 128 128" role="img" aria-label="Zenotika night logo placeholder"><defs><linearGradient id="n" x1="0" x2="1" y1="1" y2="0"><stop offset="0%" stop-color="#1d2248"/><stop offset="50%" stop-color="#3f3688"/><stop offset="100%" stop-color="#5a42a6"/></linearGradient></defs><circle cx="64" cy="64" r="60" fill="url(#n)"/><path d="M78 34c-4.6 0-9 1-12.9 2.8C55 41 49 51 49 62.6c0 13.2 9.6 24.2 22.6 26.1 8.5 1.2 16.5-1.4 22.4-6.7-5.8 8.9-15.9 14.7-27.3 14.7C49.9 96.7 34.7 81.5 34.7 63.3 34.7 45 49.9 29.8 68.2 29.8c3.5 0 6.8.5 10 1.5.2.9.3 1.9.3 2.9 0 6.9-4.7 12.7-10.9 14.3A11.3 11.3 0 0 0 78 34Z" fill="#fff" fill-opacity="0.9"/></svg>